#!OML:ASF E:\emotionWalksFemale\Project 1\Capture day 1\Session 1\Female1.ASF
:FULLY-SPECIFIED
:DEGREES
443
root 7.73889 15.621 14.5086 -180.801 -1.32478 -179.434
lowerback 7.43834 1.21652 1.28838
upperback -4.76229 1.69906 0.191069
thorax -9.19806 0.708459 -0.772802
lowerneck -8.49588 -2.10395 -5.02806
upperneck 13.4489 -2.88563 3.3626
head 5.57273 -1.53043 1.6575
rclavicle 4.84538e-016 -9.44227e-016
rhumerus -45.9776 22.8847 -103.534
rradius 35.6251
rwrist 16.2409
rhand -0.849496 -56.1198
rfingers 7.12502
rthumb 24.7765 -444.535
lclavicle 4.84538e-016 -9.44227e-016
lhumerus -43.197 -7.17462 92.5216
lradius 34.7786
lwrist -17.7751
lhand -5.0602 -36.7381
lfingers 7.12502
lthumb 20.7356 -7.82589
rfemur 3.11452 19.3038 27.8617
rtibia 11.6056
rfoot -13.0952 -33.191
rtoes 4.82205
lfemur -3.32216 -21.3091 -24.6054
ltibia 21.1701
lfoot -19.994 23.2407
ltoes -26.7255
444
root 7.74097 15.6197 14.5082 -180.851 -1.32554 -179.416
lowerback 7.22957 1.2254 1.26888
upperback -4.59475 1.71501 0.249849
thorax -8.89395 0.726501 -0.695082
lowerneck -8.62923 -2.04343 -4.99337
upperneck 13.4349 -2.78705 3.311
head 5.58574 -1.48018 1.6421
rclavicle -1.77974e-014 -9.34288e-015
rhumerus -45.7548 23.2193 -103.508
rradius 34.9091
rwrist 17.9312
rhand -1.78626 -55.0703
rfingers 7.12502
rthumb 23.8784 -443.606
lclavicle -1.77974e-014 -9.34288e-015
lhumerus -43.0692 -7.26069 92.645
lradius 34.8942
lwrist -17.5364
lhand -5.11311 -36.5966
lfingers 7.12502
lthumb 20.6847 -7.67886
rfemur 3.14433 19.269 27.9092
rtibia 11.6535
rfoot -13.043 -33.1885
rtoes 4.44997
lfemur -3.27191 -21.3047 -24.5942
ltibia 21.1784
lfoot -19.9979 23.2478
ltoes -26.6575
445
root 7.74241 15.6193 14.5085 -180.9 -1.33745 -179.435
lowerback 7.02135 1.21692 1.22875
upperback -4.40435 1.70652 0.318572
thorax -8.5679 0.734535 -0.591687
lowerneck -8.77736 -2.00422 -5.08312
upperneck 13.381 -2.6963 3.27009
head 5.59124 -1.4376 1.64991
rclavicle 1.35546e-014 8.94531e-016
rhumerus -45.4357 23.5812 -103.434
rradius 34.5807
rwrist 18.306
rhand -2.31058 -54.6745
rfingers 7.12502
rthumb 23.3755 -443.275
lclavicle 1.35546e-014 8.94531e-016
lhumerus -42.7856 -7.16137 92.7168
lradius 34.8277
lwrist -17.5006
lhand -5.17667 -36.5074
lfingers 7.12502
lthumb 20.6237 -7.58301
rfemur 3.16413 19.1955 27.9213
rtibia 11.7439
rfoot -12.783 -33.2061
rtoes 3.43832
lfemur -3.20576 -21.3182 -24.6276
ltibia 21.1486
lfoot -19.971 23.3246
ltoes -27.0021
446
root 7.74439 15.621 14.5106 -180.849 -1.41413 -179.501
lowerback 7.21225 1.17095 1.20789
upperback -4.52865 1.6436 0.334585
thorax -8.81739 0.700586 -0.559662
lowerneck -8.7345 -1.95511 -5.24254
upperneck 13.4329 -2.61573 3.2821
head 5.59896 -1.40797 1.68619
rclavicle -1.11816e-016 -4.17448e-015
rhumerus -45.6047 23.6168 -103.491
rradius 34.5767
rwrist 18.3602
rhand -2.59986 -54.3816
rfingers 7.12502
rthumb 23.0979 -443.017
lclavicle -1.11816e-016 -4.17448e-015
lhumerus -42.9199 -7.05419 92.7826
lradius 34.7714
lwrist -17.3938
lhand -5.16102 -36.3872
lfingers 7.12502
lthumb 20.6387 -7.46447
rfemur 3.03566 19.1233 27.8343
rtibia 11.8853
rfoot -12.6971 -33.2101
rtoes 2.84667
lfemur -3.25094 -21.3557 -24.6628
ltibia 21.0793
lfoot -19.947 23.3299
ltoes -27.2437
447
root 7.74747 15.6231 14.5119 -180.742 -1.44351 -179.553
lowerback 7.23923 1.15374 1.17942
upperback -4.62513 1.61339 0.330584
thorax -8.93953 0.68377 -0.544889
lowerneck -8.69461 -1.90822 -5.24361
upperneck 13.4628 -2.55011 3.23086
head 5.59796 -1.38153 1.67546
rclavicle 1.40019e-014 -1.59028e-015
rhumerus -45.7312 23.543 -103.502
rradius 34.5953
rwrist 18.6472
rhand -2.90256 -54.0242
rfingers 7.12502
rthumb 22.8075 -442.696
lclavicle 1.40019e-014 -1.59028e-015
lhumerus -43.1024 -7.1164 92.8693
lradius 34.8433
lwrist -17.1769
lhand -5.04061 -36.1766
lfingers 7.12502
lthumb 20.7544 -7.26653
rfemur 2.8313 19.1046 27.7418
rtibia 12.0569
rfoot -13.1643 -33.1802
rtoes 3.77074
lfemur -3.34697 -21.3796 -24.6597
ltibia 20.9923
lfoot -19.9163 23.2338
ltoes -26.9992
448
root 7.74891 15.6214 14.5103 -180.761 -1.38281 -179.602
lowerback 7.2436 1.17192 1.13961
upperback -4.61946 1.63376 0.329992
thorax -8.93666 0.696324 -0.526253
lowerneck -8.79224 -1.89279 -5.08195
upperneck 13.6091 -2.52329 3.01343
head 5.65469 -1.37767 1.58157
rclavicle -9.62863e-015 -2.5842e-015
rhumerus -45.7134 23.4431 -103.437
rradius 34.5622
rwrist 19.0078
rhand -3.01505 -53.7221
rfingers 7.12502
rthumb 22.6995 -442.407
lclavicle -9.62863e-015 -2.5842e-015
lhumerus -43.233 -7.18944 92.9434
lradius 34.9498
lwrist -17.0944
lhand -4.81048 -35.8149
lfingers 7.12502
lthumb 20.9755 -6.92906
rfemur 2.81015 19.1566 27.7054
rtibia 12.1777
rfoot -13.5247 -33.1633
rtoes 4.51234
lfemur -3.27683 -21.3775 -24.728
ltibia 20.9196
lfoot -19.8809 23.2286
ltoes -26.9863
449
root 7.75068 15.6182 14.5077 -180.845 -1.45273 -179.643
lowerback 7.28929 1.14049 1.09869
upperback -4.59873 1.59027 0.343807
thorax -8.94316 0.678872 -0.483136
lowerneck -8.83657 -1.85603 -4.89365
upperneck 13.7151 -2.4681 2.76347
head 5.68793 -1.36124 1.47563
rclavicle -1.16041e-014 1.04362e-014
rhumerus -45.708 23.5045 -103.454
rradius 34.5102
rwrist 19.1123
rhand -3.56691 -53.4553
rfingers 7.12502
rthumb 22.1698 -442.204
lclavicle -1.16041e-014 1.04362e-014
lhumerus -43.3431 -7.17634 92.9654
lradius 35.0188
lwrist -17.1332
lhand -4.53954 -35.4902
lfingers 7.12502
lthumb 21.2358 -6.6335
rfemur 2.92371 19.31 27.7414
rtibia 12.2293
rfoot -13.5377 -33.3775
rtoes 4.32837
lfemur -3.14316 -21.4143 -24.8024
ltibia 20.8637
lfoot -19.9018 23.185
ltoes -27.0973
